<svg width="24" height="24" viewBox="0 0 24 24" fill="none" xmlns="http://www.w3.org/2000/svg">
<path d="M11.9993 10.1482L3.3212 6.92793C3.12706 6.85629 3.02658 6.63613 3.0964 6.43694C3.16622 6.23774 3.3808 6.13465 3.57493 6.20629L11.9993 9.33224L20.3744 6.22551C20.5685 6.15387 20.783 6.25696 20.8528 6.45616C20.9226 6.65535 20.8222 6.87551 20.6281 6.94715L11.9976 10.1482H11.9993Z" fill="#0C29D0"/>
<path d="M12 20.9998C11.8774 20.9998 11.7548 20.9788 11.6373 20.9351L3.34059 17.8563C3.13623 17.7812 3 17.5803 3 17.3583V6.78707C3 6.47779 3.19073 6.19997 3.47342 6.09513L11.6373 3.06528C11.8723 2.97791 12.1294 2.97791 12.3627 3.06528L20.5265 6.09513C20.8092 6.19997 21 6.47779 21 6.78707V17.3583C21 17.5803 20.8638 17.7794 20.6594 17.8563L12.3627 20.9351C12.2452 20.9788 12.1226 20.9998 12 20.9998ZM3.7459 17.1923L11.891 20.2135C11.9608 20.2397 12.0391 20.2397 12.109 20.2135L20.2541 17.1923V6.80978L12.109 3.78867C12.0391 3.76246 11.9608 3.76246 11.891 3.78867L3.7459 6.80978V17.1923Z" fill="#0C29D0"/>
<path d="M11.9999 20.8968C11.7938 20.8968 11.627 20.7256 11.627 20.5141V9.74366C11.627 9.53223 11.7938 9.36099 11.9999 9.36099C12.2059 9.36099 12.3728 9.53223 12.3728 9.74366V20.5141C12.3728 20.7256 12.2059 20.8968 11.9999 20.8968Z" fill="#0C29D0"/>
<path d="M7.61127 8.32638C7.45801 8.32638 7.31495 8.22853 7.26046 8.07302C7.19064 7.87382 7.29112 7.65366 7.48526 7.58202L15.8126 4.49276C16.0067 4.42112 16.2213 4.52421 16.2911 4.7234C16.361 4.9226 16.2604 5.14276 16.0663 5.2144L7.73899 8.30366C7.69642 8.31939 7.65385 8.32638 7.61127 8.32638Z" fill="#0C29D0"/>
</svg>
